<?xml version="1.0" encoding="UTF-8" standalone="no"?>
<!-- Created with Inkscape (http://www.inkscape.org/) -->

<svg
   width="480"
   height="220"
   viewBox="0 0 127 58.208332"
   version="1.1"
   id="svg5"
   inkscape:version="1.1.1 (3bf5ae0d25, 2021-09-20)"
   sodipodi:docname="loopi.svg"
   xmlns:inkscape="http://www.inkscape.org/namespaces/inkscape"
   xmlns:sodipodi="http://sodipodi.sourceforge.net/DTD/sodipodi-0.dtd"
   xmlns="http://www.w3.org/2000/svg"
   xmlns:svg="http://www.w3.org/2000/svg">
  <sodipodi:namedview
     id="namedview7"
     pagecolor="#ffffff"
     bordercolor="#666666"
     borderopacity="1.0"
     inkscape:pageshadow="2"
     inkscape:pageopacity="0.0"
     inkscape:pagecheckerboard="0"
     inkscape:document-units="px"
     showgrid="false"
     units="px"
     inkscape:zoom="1.2810466"
     inkscape:cx="240.81872"
     inkscape:cy="114.74993"
     inkscape:window-width="1920"
     inkscape:window-height="1018"
     inkscape:window-x="-8"
     inkscape:window-y="-8"
     inkscape:window-maximized="1"
     inkscape:current-layer="layer1" />
  <defs
     id="defs2" />
  <g
     inkscape:label="Layer 1"
     inkscape:groupmode="layer"
     id="layer1"
     transform="translate(-42.426152,-120.19039)">
    <path
       d="m 83.884916,156.46286 c -0.06011,0.1185 -0.119202,0.23132 -0.176707,0.33849 -0.127,0.23181 -0.256503,0.459 -0.388689,0.67811 -0.130915,0.21622 -0.264583,0.4258 -0.398287,0.62442 -0.125307,0.18588 -0.268923,0.38558 -0.428731,0.59647 -0.151271,0.2025 -0.311079,0.4064 -0.479388,0.60932 v 10e-4 c -0.172085,0.20924 -0.344594,0.40781 -0.513998,0.59651 -0.173496,0.19301 -0.340395,0.3694 -0.500203,0.5278 -0.723583,0.72351 -1.524,1.3807 -2.389399,1.9582 -0.852983,0.5691 -1.768089,1.05981 -2.733993,1.45951 -0.943999,0.39119 -1.932199,0.6943 -2.950599,0.89711 -0.994904,0.19678 -2.021416,0.30159 -3.067296,0.30159 -1.046022,0 -2.072605,-0.10481 -3.06751,-0.30159 -1.01981,-0.20281 -2.0066,-0.50592 -2.952009,-0.89711 -0.964494,-0.3997 -1.8796,-0.89041 -2.733993,-1.45951 -0.865399,-0.5775 -1.665779,-1.23469 -2.389399,-1.9582 -0.723511,-0.72359 -1.379289,-1.52259 -1.956787,-2.38799 -0.570513,-0.8544 -1.061225,-1.77091 -1.459513,-2.734 -0.391194,-0.94551 -0.694301,-1.93361 -0.897112,-2.95211 -0.198297,-0.9948 -0.301591,-2.02138 -0.301591,-3.0674 0,-1.04578 0.103294,-2.0724 0.301591,-3.0673 0.202811,-1.01977 0.505918,-2.0066 0.897112,-2.95158 0.398288,-0.96492 0.889,-1.88003 1.459513,-2.7341 0.577498,-0.86572 1.233276,-1.6661 1.956787,-2.38972 l 0.0013,0.001 c 0.726403,-0.7264 1.525376,-1.38221 2.387986,-1.9583 0.854393,-0.569 1.769499,-1.05971 2.733993,-1.45898 0.945409,-0.39162 1.933612,-0.69473 2.952009,-0.89722 0.994905,-0.19721 2.021488,-0.30191 3.06751,-0.30191 0.239782,0 0.498793,0.007 0.774277,0.0222 0.263207,0.0138 0.53622,0.0356 0.817314,0.0631 0.275484,0.0276 0.540104,0.0621 0.790892,0.0995 0.250825,0.0385 0.513998,0.0868 0.788107,0.14178 0.253717,0.0523 0.505917,0.1101 0.755298,0.1736 0.243803,0.0621 0.491807,0.13229 0.742595,0.211 0.249415,0.0758 0.493501,0.1584 0.730605,0.24663 0.234315,0.0853 0.478012,0.18199 0.728908,0.28779 0.23421,0.0995 0.467008,0.20391 0.695995,0.3144 0.126613,0.0606 0.252201,0.1241 0.375991,0.18729 l 0.0043,-0.008 0.300212,0.16259 c 0.217982,0.11709 0.437092,0.24381 0.654685,0.3761 0.223414,0.13508 0.439597,0.27411 0.649219,0.41621 0.185877,0.12668 0.385479,0.26878 0.596476,0.42717 0.202528,0.15279 0.4064,0.31401 0.610728,0.48091 h 0.0013 c 0.209196,0.1735 0.409221,0.34569 0.597921,0.51541 0.191596,0.1736 0.367982,0.34039 0.526381,0.49879 1.615016,1.61498 2.989123,3.2784 4.240424,4.96358 1.248373,1.68283 2.368478,3.37641 3.487489,5.06981 l 0.0013,0.001 c 2.123825,3.21511 4.250018,6.43139 7.225311,9.4064 1.089697,1.09001 2.38122,1.96391 3.8033,2.55369 0.694619,0.28652 1.429109,0.5098 2.192519,0.66153 0.74119,0.14598 1.51158,0.22189 2.30258,0.22189 0.79231,0 1.56281,-0.0759 2.30403,-0.22189 0.76338,-0.15173 1.49648,-0.37501 2.19248,-0.66153 0.70841,-0.29348 1.38359,-0.65758 2.0175,-1.08338 0.6368,-0.42722 1.2362,-0.9204 1.7858,-1.47031 0.55001,-0.55111 1.04309,-1.149 1.47182,-1.7858 0.42439,-0.63401 0.78839,-1.3106 1.0819,-2.01902 0.2879,-0.69458 0.51117,-1.42769 0.66149,-2.19247 0.14598,-0.74123 0.2219,-1.51162 0.2219,-2.30262 0,-0.79079 -0.0759,-1.56118 -0.2219,-2.3024 -0.15032,-0.7649 -0.37359,-1.4979 -0.66149,-2.19248 -0.29351,-0.70842 -0.65751,-1.3836 -1.0819,-2.01761 -0.42873,-0.63779 -0.92181,-1.2361 -1.47182,-1.78569 v -0.001 c -0.54681,-0.5485 -1.1465,-1.0407 -1.7858,-1.47031 -0.63391,-0.42439 -1.30909,-0.78849 -2.0175,-1.08197 -0.696,-0.2879 -1.4291,-0.51121 -2.19248,-0.66153 -0.74122,-0.14598 -1.51172,-0.22288 -2.30403,-0.22288 -0.2329,0 -0.44238,0.004 -0.62688,0.0137 -0.19862,0.008 -0.39021,0.0219 -0.57189,0.0413 -0.1862,0.018 -0.38312,0.0441 -0.58702,0.0745 -0.20948,0.0317 -0.4039,0.0659 -0.58449,0.1033 -0.18602,0.0371 -0.37189,0.0812 -0.5553,0.12809 -0.18729,0.0483 -0.37611,0.10192 -0.56481,0.16122 -0.18909,0.0578 -0.37359,0.11987 -0.55139,0.1845 -0.1845,0.0677 -0.362299,0.1379 -0.532029,0.20948 -0.16538,0.0688 -0.33619,0.1475 -0.5098,0.2304 -0.17628,0.0854 -0.34459,0.17219 -0.50577,0.2589 v 0.001 c -0.16133,0.0867 -0.31973,0.17917 -0.47382,0.27269 -0.15741,0.0966 -0.325295,0.20391 -0.498793,0.32241 -0.166899,0.11317 -0.321416,0.22189 -0.460409,0.32529 v 10e-4 c -0.161184,0.11991 -0.308682,0.23562 -0.441008,0.34601 l -0.0042,0.004 -0.04269,0.0332 -0.0081,0.007 -0.0417,0.0314 c -0.121002,0.10203 -0.238088,0.2068 -0.349885,0.30872 l 0.0013,0.001 c -0.117123,0.1076 -0.246629,0.23428 -0.389821,0.37638 -0.302011,0.3017 -0.556684,0.57859 -0.762386,0.828 -0.108623,0.1323 -0.220523,0.2745 -0.333307,0.42722 -0.106185,0.14358 -0.220485,0.3048 -0.3405,0.48119 -0.117086,0.17501 -0.224295,0.34149 -0.320993,0.49879 -0.102024,0.16661 -0.194416,0.3253 -0.274108,0.47381 -0.155787,0.2848 -0.264195,0.58438 -0.407598,0.84748 -0.340821,0.62481 -1.003618,1.04902 -1.765512,1.04902 -1.10998,0 -2.009881,-0.8999 -2.009881,-2.00991 0,-0.30918 0.06978,-0.60198 0.194591,-0.86371 l -2.65e-4,-1.7e-4 c 0.04022,-0.0881 0.08082,-0.17481 0.12192,-0.2599 h 0.0013 c 0.118496,-0.24691 0.234172,-0.47272 0.345686,-0.67941 0.12559,-0.2329 0.256506,-0.459 0.388797,-0.67811 0.130916,-0.21618 0.263208,-0.4258 0.398286,-0.62438 0.1252,-0.18733 0.268427,-0.38562 0.427214,-0.59792 0.152718,-0.2025 0.312489,-0.40499 0.480801,-0.60788 0.182102,-0.22052 0.352811,-0.42012 0.512585,-0.59792 0.175014,-0.193 0.341913,-0.36939 0.500203,-0.5292 0.146122,-0.14598 0.308716,-0.30018 0.486516,-0.4614 0.169405,-0.15448 0.349991,-0.31009 0.538692,-0.46888 l 0.03602,-0.0328 0.0095,-0.008 0.0441,-0.0371 0.0057,-0.004 c 0.192899,-0.15981 0.39257,-0.31542 0.595066,-0.46849 0.213818,-0.1584 0.4191,-0.30593 0.617432,-0.4396 0.199988,-0.13511 0.408093,-0.26881 0.625792,-0.39973 0.203904,-0.12269 0.431094,-0.2522 0.678003,-0.38587 v -0.001 c 0.2135,-0.11571 0.439597,-0.23139 0.678074,-0.34569 0.224332,-0.10763 0.4572,-0.21382 0.699908,-0.31581 0.25079,-0.10579 0.49322,-0.20249 0.72739,-0.28779 0.23851,-0.0882 0.4826,-0.17082 0.73202,-0.248 0.23569,-0.0731 0.483689,-0.1433 0.739809,-0.20821 v -0.001 c 0.23569,-0.0607 0.48789,-0.1185 0.75809,-0.17208 0.2727,-0.0565 0.5359,-0.1034 0.78811,-0.14221 0.25079,-0.0385 0.51399,-0.0716 0.79099,-0.0991 0.27969,-0.029 0.55281,-0.0494 0.81732,-0.0632 0.27559,-0.0152 0.53308,-0.0222 0.77438,-0.0222 1.04599,0 2.07261,0.1033 3.0674,0.30159 1.01851,0.20292 2.0066,0.50451 2.9506,0.89613 0.96591,0.39927 1.88101,0.88998 2.73509,1.4605 0.86152,0.57457 1.6619,1.2319 2.38831,1.95678 0.72361,0.72359 1.3808,1.524 1.9583,2.3894 0.569,0.85299 1.05971,1.7695 1.45909,2.734 0.39162,0.944 0.69462,1.9322 0.89602,2.9506 0.19829,0.9949 0.3031,2.02152 0.3031,3.06729 0,1.04602 -0.10481,2.07261 -0.3031,3.06741 -0.2014,1.01991 -0.5044,2.0066 -0.89602,2.95211 -0.39938,0.96449 -0.89009,1.8796 -1.45909,2.73399 -0.5775,0.8654 -1.23469,1.66582 -1.9583,2.3894 -0.72348,0.72351 -1.524,1.37929 -2.3893,1.95679 -0.85309,0.57051 -1.7696,1.06122 -2.7341,1.4605 -0.944,0.39162 -1.93209,0.69331 -2.9506,0.89612 -0.99479,0.1983 -2.02141,0.3016 -3.0674,0.3016 -1.04598,0 -2.0726,-0.1033 -3.0674,-0.3016 -1.01989,-0.20281 -2.006609,-0.5045 -2.95209,-0.89612 -0.964526,-0.39928 -1.879596,-0.88999 -2.734025,-1.4605 -0.865398,-0.5775 -1.66578,-1.23328 -2.389399,-1.95679 -3.231371,-3.23151 -5.478886,-6.63261 -7.725089,-10.03201 h -0.0013 l -0.0013,-0.001 v -0.001 c -1.0668,-1.61378 -2.133318,-3.2289 -3.300624,-4.80261 -1.163074,-1.57088 -2.436284,-3.11428 -3.924583,-4.60368 -0.15561,-0.15462 -0.298802,-0.29361 -0.429718,-0.41352 -0.135078,-0.12418 -0.268782,-0.2413 -0.399698,-0.3489 v -10e-4 c -0.130879,-0.10901 -0.275484,-0.22038 -0.427178,-0.33369 -0.143298,-0.10619 -0.303424,-0.21911 -0.479814,-0.33761 -0.1651,-0.11289 -0.323884,-0.21481 -0.472403,-0.30437 l -0.0013,0.001 c -0.158713,-0.0967 -0.325331,-0.193 -0.498827,-0.28677 l -0.303389,-0.16412 v -0.002 c -0.066,-0.0332 -0.133702,-0.0664 -0.201084,-0.0995 -0.175011,-0.084 -0.346109,-0.16129 -0.511209,-0.23149 -0.169722,-0.0716 -0.347522,-0.14178 -0.53199,-0.20948 -0.1778,-0.0646 -0.362302,-0.12672 -0.551426,-0.1845 -0.193992,-0.0607 -0.383082,-0.1143 -0.564798,-0.16122 -0.183409,-0.0469 -0.369287,-0.0896 -0.556577,-0.12809 -0.179211,-0.0374 -0.373627,-0.0716 -0.583211,-0.1033 -0.205317,-0.0304 -0.400616,-0.0565 -0.588293,-0.0745 -0.180306,-0.0194 -0.371793,-0.0331 -0.570513,-0.0413 -0.185912,-0.008 -0.395393,-0.0137 -0.62819,-0.0137 -0.790998,0 -1.561396,0.0769 -2.302616,0.22289 -0.763375,0.15032 -1.497896,0.37363 -2.19248,0.66153 -0.708411,0.29348 -1.383595,0.65758 -2.017607,1.08197 -0.640609,0.42961 -1.23892,0.92181 -1.785688,1.47031 v 0.001 c -0.551429,0.54959 -1.044612,1.1479 -1.471826,1.78569 -0.425803,0.63249 -0.789904,1.30919 -1.083381,2.01761 -0.286525,0.69458 -0.509799,1.42758 -0.660117,2.19247 -0.145981,0.74123 -0.223308,1.51162 -0.223308,2.30241 0,0.791 0.07733,1.56139 0.223308,2.30261 0.150318,0.76479 0.373592,1.4979 0.660117,2.19248 0.293476,0.70842 0.657578,1.38363 1.083381,2.01761 0.427214,0.63821 0.920396,1.2361 1.470307,1.78573 0.55111,0.55139 1.148997,1.04457 1.785797,1.47178 0.634013,0.42581 1.310606,0.78991 2.019017,1.08201 0.694584,0.2879 1.427586,0.51118 2.19248,0.66149 0.74122,0.14602 1.511618,0.22331 2.302616,0.22331 0.790893,0 1.561182,-0.0773 2.302404,-0.22331 0.764892,-0.15031 1.497894,-0.37359 2.192478,-0.66149 0.708414,-0.2921 1.385112,-0.6562 2.017606,-1.08201 0.637787,-0.42721 1.236099,-0.92039 1.787207,-1.47178 0.300496,-0.30022 0.556612,-0.57852 0.762,-0.8279 v -0.001 c 0.115994,-0.13942 0.227508,-0.28261 0.333693,-0.42581 0.107209,-0.1433 0.220522,-0.3031 0.339018,-0.47949 0.118499,-0.1753 0.22578,-0.34181 0.322369,-0.49911 0.102023,-0.16658 0.194416,-0.32502 0.274108,-0.47378 0.144322,-0.26572 0.308118,-0.67003 0.466408,-0.9132 0.358494,-0.55051 0.979487,-0.91462 1.685395,-0.91462 1.110017,0 2.009918,0.89991 2.009918,2.00989 0,0.297 -0.06459,0.5789 -0.1802,0.83252 -0.07913,0.1731 -0.200096,0.3962 -0.285115,0.56349 z m 49.559214,3.04391 c -1.04422,0 -1.89321,1.1206 -1.89071,1.89068 0.002,0.55051 0.23781,1.04743 0.60992,1.39153 0.24059,0.2226 0.57559,0.37729 0.86737,0.53209 1.08342,0.5733 2.2285,1.0044 3.43532,1.29121 1.2072,0.28638 2.4765,0.43 3.80651,0.43 1.4799,0 2.8896,-0.17251 4.23188,-0.514 1.34059,-0.34333 2.61412,-0.85722 3.8185,-1.5434 2.40591,-1.37273 4.29539,-3.26182 5.6677,-5.66812 0.68509,-1.20149 1.19912,-2.46941 1.54202,-3.80471 0.34329,-1.3353 0.51538,-2.73258 0.51538,-4.19057 0,-1.47843 -0.17209,-2.8895 -0.514,-4.23041 -0.3429,-1.34239 -0.8569,-2.6155 -1.5434,-3.8185 -0.6875,-1.2058 -1.50319,-2.2793 -2.44578,-3.2233 -0.94262,-0.94269 -2.0175,-1.75831 -3.22192,-2.44482 -1.20438,-0.6876 -2.47791,-1.2016 -3.8185,-1.5434 -1.34228,-0.3429 -2.75198,-0.514 -4.23188,-0.514 -1.44142,0 -2.8212,0.1669 -4.1413,0.5002 -1.3172,0.33243 -2.57422,0.83401 -3.76731,1.50083 -1.19479,0.6671 -2.26409,1.46357 -3.2095,2.38968 -0.94411,0.92601 -1.76389,1.98011 -2.45841,3.16509 -0.69708,1.18533 -1.22378,2.43522 -1.5791,3.74692 -0.3556,1.3105 -0.5443,2.6899 -0.56229,4.13688 l -0.001,0.004 v 26.6125 c 0,0.29781 0.0469,0.57051 0.14182,0.81459 0.0967,0.25083 0.24268,0.46712 0.43709,0.65053 0.1887,0.17737 0.40499,0.31259 0.64629,0.4022 0.2395,0.0882 0.49742,0.1337 0.77431,0.1337 0.29641,0 0.5648,-0.0441 0.80741,-0.13233 0.2523,-0.091 0.46848,-0.2286 0.65059,-0.41066 0.18161,-0.182 0.31961,-0.39974 0.4106,-0.65053 0.0882,-0.24228 0.13229,-0.51121 0.13229,-0.8075 v -26.28188 c 0,-1.12991 0.12802,-2.20482 0.3817,-3.22192 0.25471,-1.01808 0.63532,-1.98289 1.14371,-2.89098 0.50729,-0.90942 1.11192,-1.72261 1.81222,-2.44051 0.6985,-0.71649 1.49369,-1.33809 2.38658,-1.8644 0.89182,-0.52641 1.8355,-0.92039 2.8321,-1.18251 0.99762,-0.26321 2.05309,-0.39409 3.16371,-0.39409 1.10938,0 2.16348,0.13088 3.1612,0.39409 0.99801,0.26212 1.94169,0.6561 2.83348,1.18251 1.78301,1.05269 3.19271,2.48881 4.22772,4.30781 0.51679,0.90798 0.90421,1.87138 1.16311,2.8896 0.25898,1.0184 0.38837,2.0919 0.38837,3.2204 0,1.1285 -0.12939,2.20338 -0.38837,3.22047 -0.2589,1.0184 -0.64632,1.98152 -1.16311,2.88993 -0.51682,0.90949 -1.1285,1.72229 -1.83271,2.4349 -0.70411,0.7123 -1.50068,1.32719 -2.39251,1.845 -0.8915,0.51678 -1.83688,0.9042 -2.8346,1.16169 -0.99618,0.25929 -2.05028,0.38739 -3.16258,0.38739 -1.1134,0 -2.1675,-0.1281 -3.1652,-0.38739 -0.643,-0.16619 -1.26492,-0.38661 -1.86471,-0.66089 -0.59171,-0.27062 -1.12169,-0.7058 -1.79959,-0.7058 z m -82.581506,5.2046 c -2.204897,0 -4.012919,-0.88872 -5.423995,-2.66629 -0.695712,-0.87952 -1.219518,-1.88673 -1.56672,-3.0208 -0.347382,-1.1272 -0.519607,-2.3785 -0.519607,-3.7525 v -32.28721 c 0,-0.6131 0.193005,-1.10102 0.577532,-1.4647 0.190077,-0.1778 0.4064,-0.31161 0.6477,-0.40259 0.238477,-0.0882 0.497383,-0.13233 0.774277,-0.13233 0.296405,0 0.565221,0.0441 0.807614,0.13092 0.250791,0.0924 0.468384,0.2286 0.650486,0.4107 0.362305,0.3623 0.542891,0.84868 0.542891,1.458 v 32.28721 c 0,0.8188 0.08541,1.55998 0.256505,2.22137 0.169297,0.65483 0.421498,1.23761 0.759106,1.74731 0.32812,0.49639 0.701394,0.86681 1.119119,1.11089 0.409186,0.2395 0.868079,0.35811 1.375092,0.35811 h 1.376889 c 0.248005,0 0.479391,0.0483 0.691409,0.1422 0.212408,0.0934 0.398288,0.23421 0.560883,0.41872 0.161324,0.18489 0.281199,0.39969 0.359904,0.64628 l -0.0013,0.001 c 0.07578,0.23847 0.1143,0.50309 0.1143,0.7923 0,0.277 -0.04551,0.53629 -0.133701,0.7747 -0.08961,0.24239 -0.224401,0.4572 -0.402201,0.6477 -0.181999,0.1941 -0.399699,0.3387 -0.650524,0.43677 -0.243805,0.0935 -0.515374,0.14041 -0.814599,0.14041 l -1.100984,0.001 z m 111.965496,0 c -0.5733,0 -1.05029,-0.19022 -1.43058,-0.57041 -0.1887,-0.19018 -0.33193,-0.4064 -0.42863,-0.6477 -0.0935,-0.23851 -0.14037,-0.50031 -0.14037,-0.78288 v -26.83281 c 0,-0.29781 0.0469,-0.5691 0.14037,-0.81322 0.0981,-0.25079 0.24271,-0.46849 0.43713,-0.65049 0.19018,-0.17889 0.40499,-0.31259 0.6477,-0.4022 0.23809,-0.0896 0.49738,-0.1337 0.77438,-0.1337 0.2963,0 0.56512,0.0441 0.8061,0.13229 0.25079,0.091 0.46701,0.22722 0.65052,0.40922 0.18309,0.18348 0.32099,0.40111 0.41198,0.652 0.0882,0.24088 0.13091,0.51111 0.13091,0.8061 v 26.83281 c 0,0.27838 -0.0441,0.53629 -0.13229,0.77607 -0.091,0.24102 -0.22472,0.45731 -0.40252,0.64633 -0.18309,0.1941 -0.39938,0.34008 -0.65158,0.43677 -0.24412,0.0935 -0.51541,0.14182 -0.81312,0.14182 z m 0,-36.4877 c 1.6164,0 2.927,-1.31021 2.927,-2.92671 0,-1.61781 -1.3106,-2.92841 -2.927,-2.92841 -1.6165,0 -2.927,1.3106 -2.927,2.92841 0,1.6165 1.3105,2.92671 2.927,2.92671 z m 3.38871,36.4877 v -1.32722 h -0.47691 v -0.18157 h 1.1589 v 0.18157 h -0.4766 v 1.32722 z m 1.05269,-1.28552 v 1.28552 h -0.1887 v -1.50879 h 0.29351 l 0.37469,1.1546 c 0.0109,0.0318 0.0194,0.0579 0.0236,0.0759 0.005,0.0179 0.01,0.0331 0.0123,0.0469 0.005,-0.0247 0.011,-0.0469 0.0166,-0.0674 0.004,-0.0194 0.011,-0.0388 0.0166,-0.0554 l 0.387,-1.1546 H 168.5 v 1.50879 h -0.19967 v -1.28552 c -0.004,0.0218 -0.01,0.0441 -0.0165,0.0645 -0.006,0.0237 -0.0124,0.0455 -0.0194,0.0664 l -0.387,1.15461 h -0.19301 l -0.38029,-1.15461 c -0.007,-0.018 -0.0127,-0.0389 -0.0194,-0.0607 -0.006,-0.0223 -0.01,-0.0455 -0.0152,-0.0702"
       style="fill:#6b1e74;fill-opacity:1;fill-rule:evenodd;stroke:none;stroke-width:0.352777"
       id="path832" />
  </g>
</svg>
